HIERARCHY
ROOT pelvis
{
	OFFSET 0.000000 0.000000 0.000000
	CHANNELS 6 Xposition Yposition Zposition Zrotation Xrotation Yrotation
	JOINT lfemur
	{
		OFFSET 11.446000 0.000000 0.000000
		CHANNELS 3 Zrotation Xrotation Yrotation
		JOINT ltibia
		{
			OFFSET 0.000000 -42.030400 0.000000
			CHANNELS 3 Zrotation Xrotation Yrotation
			JOINT lfoot
			{
				OFFSET 0.000000 -39.930200 0.000000
				CHANNELS 3 Zrotation Xrotation Yrotation
				JOINT ltoes
				{
					OFFSET 0.000000 0.000000 11.775800
					CHANNELS 3 Zrotation Xrotation Yrotation
					End Site
					{
					    OFFSET 0.000000 0.000000 5.000000
					}
				}
			}
		}
	}
	JOINT rfemur
	{
		OFFSET -11.446000 0.000000 0.000000
		CHANNELS 3 Zrotation Xrotation Yrotation
		JOINT rtibia
		{
			OFFSET 0.000000 -42.030400 0.000000
			CHANNELS 3 Zrotation Xrotation Yrotation
			JOINT rfoot
			{
				OFFSET 0.000000 -39.930200 0.000000
				CHANNELS 3 Zrotation Xrotation Yrotation
				JOINT rtoes
				{
					OFFSET 0.000000 0.000000 11.775800
					CHANNELS 3 Zrotation Xrotation Yrotation
					End Site
					{
					    OFFSET 0.000000 0.000000 5.000000
					}
				}
			}
		}
	}
	JOINT thorax
	{
		OFFSET 0.000000 11.255600 -5.000000
		CHANNELS 3 Zrotation Xrotation Yrotation
		JOINT head
		{
			OFFSET 0.000000 43.799300 0.000000
			CHANNELS 3 Zrotation Xrotation Yrotation
			End Site
			{
			    OFFSET 0.000000 5.000000 0.000000
			}
		}
		JOINT lclavicle
		{
			OFFSET 0.000000 39.863000 0.000000
			CHANNELS 3 Zrotation Xrotation Yrotation
			JOINT lhumerus
			{
				OFFSET 17.380600 4.958300 0.000000
				CHANNELS 3 Zrotation Xrotation Yrotation
				JOINT lradius
				{
					OFFSET 0.000000 -27.561300 0.000000
					CHANNELS 3 Zrotation Xrotation Yrotation
					JOINT lhand
					{
						OFFSET 0.000000 -26.933000 0.000000
						CHANNELS 3 Zrotation Xrotation Yrotation
						End Site
						{
						    OFFSET 0.000000 -5.000000 0.000000
						}
					}
				}
			}
		}
		JOINT rclavicle
		{
			OFFSET 0.000000 39.863000 0.000000
			CHANNELS 3 Zrotation Xrotation Yrotation
			JOINT rhumerus
			{
				OFFSET -17.380600 4.958300 0.000000
				CHANNELS 3 Zrotation Xrotation Yrotation
				JOINT rradius
				{
					OFFSET 0.000000 -27.561300 0.000000
					CHANNELS 3 Zrotation Xrotation Yrotation
					JOINT rhand
					{
						OFFSET 0.000000 -26.933000 0.000000
						CHANNELS 3 Zrotation Xrotation Yrotation
						End Site
						{
						    OFFSET 0.000000 -5.000000 0.000000
						}
					}
				}
			}
		}
	}
}
MOTION
Frames:	12
Frame Time:	0.0333333
-213.478 89.2689 0.547259 2.89978 0.821245 87.2245 -3.58267 -0.522628 -0.0532137 1.50329 9.99829 12.3219 4.81444 4.5447 -0.0606371 -0 -5 -0 2.51273 1.42222 -1.04039 -0.843682 12.8358 -10.5081 -4.03941 2.4316 -0.169922 6.27414e-016 -5 -0 -1.86256 1.15858 -0.860036 -0.954037 2.96872 -1.84735 2.81042e-032 -2.02512e-015 7.95139e-016 78.8176 -1.53659 68.1435 5.2502 -0.062762 -65.0751 1.28162 -7.06884 -9.79373 2.81042e-032 -2.02512e-015 7.95139e-016 -81.2758 2.98721 -36.0383 1.138 -3.55459 24.3383 -1.46441 -1.67223 9.84707 
-213.436 89.2665 0.564537 2.84807 0.801063 87.3217 -3.54922 -0.606477 -0.0462675 1.5167 10.1086 12.2309 4.75541 4.48543 -0.0607707 3.77745e-016 -5 -4.78906e-015 2.55129 1.46608 -1.0193 -0.82127 12.7158 -10.6257 -4.03749 2.4655 -0.170275 -1.95057e-015 -5 -0 -1.76876 1.15465 -0.910271 -1.35266 2.94862 -1.91188 1.98785e-016 5.2181e-016 -7.95139e-016 78.4964 -1.75219 68.1279 4.94165 -0.0950364 -63.6817 1.30798 -6.26484 -9.80089 1.98785e-016 5.2181e-016 -7.95139e-016 -81.2708 2.97492 -35.7907 1.28517 -3.32279 24.8996 -1.40973 -1.71522 9.84424 
-213.354 89.2599 0.585264 2.84439 0.814475 87.4718 -3.56969 -0.559998 -0.102522 1.572 10.0912 12.1094 4.73157 4.43374 -0.0606189 2.90229e-015 -5 -3.1927e-015 2.56453 1.59293 -1.04399 -0.802409 12.5939 -10.7742 -4.15288 2.44168 -0.170604 -2.27607e-015 -5 -1.59635e-015 -1.87513 1.31004 -0.93177 -1.27965 2.94835 -1.79214 -1.98785e-016 -3.36692e-015 -3.97569e-016 78.4805 -1.77405 68.2846 4.9534 -0.0517103 -64.3892 1.66426 -5.94322 -9.76827 -1.98785e-016 -3.36692e-015 -3.97569e-016 -81.0946 2.80014 -35.8436 1.40971 -3.05259 25.2549 -1.73167 -1.2108 9.83328 
-213.266 89.2499 0.620613 2.9154 0.799832 87.6745 -3.54651 -0.535071 -0.113465 1.61614 10.2756 11.9408 4.69601 4.31444 -0.0548554 2.52455e-015 -5 1.59635e-015 2.61387 1.77716 -1.05471 -0.787551 12.5234 -10.9693 -4.08468 2.3895 -0.170913 -2.86e-015 -5 -1.59635e-015 -1.97669 1.41662 -0.907386 -1.14815 2.93457 -2.00487 -1.98785e-016 2.80783e-015 -1.19271e-015 78.5187 -1.77465 68.0235 4.81277 -0.0989373 -63.0447 1.56434 -5.7554 -9.78135 -1.98785e-016 2.80783e-015 -1.19271e-015 -80.999 2.97491 -35.7227 1.42208 -2.95184 25.3323 -1.87611 -0.90667 9.82992 
-213.22 89.2329 0.663359 2.78574 0.755167 87.8376 -3.43522 -0.802029 -0.0501557 1.59591 10.5961 11.7131 4.68861 4.14175 -0.0436286 2.38542e-015 -5 -0 2.738 1.77905 -0.941875 -0.794042 12.3445 -11.2652 -4.12278 2.40257 -0.171215 -3.18055e-015 -5 -0 -2.16605 1.38107 -0.888461 -0.724617 2.63649 -2.11746 -1.98785e-016 7.45443e-017 7.95139e-016 78.8067 -1.71081 68.3667 5.1774 -0.274844 -64.8009 1.80581 -6.02626 -9.75985 -1.98785e-016 7.45443e-017 7.95139e-016 -80.8386 3.20411 -35.9745 1.12125 -2.77768 25.6963 -1.46344 -1.52325 9.84435 
-213.144 89.2296 0.707523 2.70746 0.748714 88.1785 -3.38424 -0.870507 -0.0656024 1.60863 10.6148 11.2917 4.87574 4.1897 -0.0404986 5.7051e-015 -5 1.59635e-015 2.77929 1.8424 -0.980676 -0.718785 12.2436 -11.5674 -4.15937 2.3719 -0.171495 1.71452e-015 -5 -0 -2.58317 1.55267 -0.929169 0.306239 2.10002 -2.50158 -5.96354e-016 -5.13113e-015 3.97569e-016 79.638 -1.81229 68.8968 5.3416 -0.0315682 -64.5592 1.62479 -6.46471 -9.76481 -5.96354e-016 -5.13113e-015 3.97569e-016 -80.469 3.34754 -36.4111 0.990199 -2.64855 25.7331 -1.54168 -1.65087 9.83823 
-213.077 89.2253 0.728782 2.69241 0.703916 88.4066 -3.32079 -0.937831 -0.0445651 1.64163 10.7746 11.0491 4.78602 4.07449 -0.0393329 -1.72941e-015 -5 -1.59635e-015 2.85189 2.01493 -0.962715 -0.68262 11.9818 -11.7987 -4.19329 2.42406 -0.171771 -1.63979e-016 -5 -1.59635e-015 -2.72179 1.65922 -0.912458 1.01962 1.80069 -2.56909 3.97569e-016 -1.72694e-015 3.97569e-016 80.031 -1.75747 68.4793 4.9501 -0.0968543 -63.7198 2.08271 -5.82861 -9.7306 3.97569e-016 -1.72694e-015 3.97569e-016 -80.3874 3.57919 -36.4516 0.883283 -2.61948 25.4874 -1.74305 -1.58163 9.8273 
-212.996 89.2216 0.72401 2.64028 0.704047 88.5467 -3.30682 -0.989189 -0.0345119 1.63834 10.8599 10.8918 4.74809 4.02549 -0.0380449 -2.58438e-016 -5 1.59635e-015 2.88377 2.20334 -0.932301 -0.689527 11.6177 -12.0001 -4.19341 2.47275 -0.17203 -3.47873e-016 -5 -0 -2.82763 1.66667 -0.883231 1.68494 1.69589 -2.33621 -1.79315e-032 2.5842e-015 3.97569e-016 80.425 -1.71544 68.3582 4.80109 -0.102996 -63.5158 2.42901 -5.53777 -9.70243 -1.79315e-032 2.5842e-015 3.97569e-016 -80.4106 3.8281 -36.3857 1.01247 -2.88826 25.0012 -1.8619 -1.36346 9.82045 
-212.907 89.223 0.697439 2.64115 0.707434 88.7281 -3.33525 -0.910596 -0.0885267 1.66861 10.7951 10.7369 4.74878 4.01576 -0.0367761 1.70958e-015 -5 -3.1927e-015 2.87221 2.22125 -0.971695 -0.687478 11.7722 -12.1043 -4.03661 2.39185 -0.172257 -1.68227e-015 -5 4.78906e-015 -2.8257 1.69317 -0.906322 2.51925 1.95294 -2.37021 3.97569e-016 3.39176e-015 -3.97569e-016 80.7479 -1.71024 68.426 4.85799 -0.0968077 -63.5106 2.63743 -5.76992 -9.67806 3.97569e-016 3.39176e-015 -3.97569e-016 -80.5205 3.90614 -36.5245 1.03753 -2.94354 24.9031 -1.78093 -1.39914 9.81671 
-212.824 89.1861 0.656416 2.60592 0.788487 88.6926 -3.44943 -0.974174 -0.118305 1.66906 10.9754 10.8188 4.75594 3.86905 -0.0355016 3.43899e-015 -5 -1.59635e-015 2.75889 2.36551 -1.00651 -0.681843 11.4556 -12.0844 -4.14281 2.31272 -0.172469 -3.48376e-015 -5 4.78906e-015 -2.88164 1.57493 -0.909179 2.49631 1.93422 -2.66349 -0 -3.60297e-016 -0 80.895 -1.53722 68.2766 4.79948 -0.0673426 -63.2107 2.79368 -5.65956 -9.66509 -0 -3.60297e-016 -0 -80.6052 3.94549 -36.3781 1.17519 -3.16563 25.2175 -1.87598 -1.52247 9.81527 
-212.74 89.188 0.620658 2.55997 0.772356 88.6367 -3.43962 -0.973437 -0.0731076 1.62064 11.0023 10.8457 4.8022 3.82682 -0.0342147 2.12698e-015 -5 1.59635e-015 2.79116 2.4043 -0.936221 -0.765317 11.3899 -12.1087 -4.01733 2.33408 -0.172679 8.2492e-016 -5 3.1927e-015 -2.88676 1.78103 -0.892156 2.39799 1.34283 -2.82753 -2.89663e-032 2.08724e-015 7.95139e-016 81.1405 -1.49837 68.8566 4.90561 -0.0757113 -63.3756 2.69751 -5.97868 -9.66632 -2.89663e-032 2.08724e-015 7.95139e-016 -80.5528 3.94084 -36.6092 1.3913 -3.49426 25.0537 -1.9213 -1.41109 9.81384 
-212.623 89.1863 0.555938 2.61888 0.843073 88.7414 -3.56397 -0.757174 -0.166531 1.62732 10.8108 10.8498 4.83443 3.85775 -0.0328961 -3.04142e-015 -5 1.59635e-015 2.68355 2.30898 -1.05802 -0.791136 11.9341 -12.057 -4.00387 2.07315 -0.172841 -2.61398e-015 -5 -3.1927e-015 -3.1087 2.32108 -0.945344 2.69748 1.05201 -3.05573 -7.36226e-032 -5.30507e-015 -7.95139e-016 81.6427 -1.68398 69.6744 4.86814 -0.128933 -63.7964 2.8971 -6.16794 -9.64397 -7.36226e-032 -5.30507e-015 -7.95139e-016 -80.2666 3.80877 -37.4786 1.43278 -3.6005 25.3568 -1.93388 -1.41481 9.8129 
